<svg xmlns="http://www.w3.org/2000/svg" viewBox="0 0 64 64" role="img" aria-labelledby="title"><title id="title">ORCA favicon</title><rect width="64" height="64" rx="16" fill="#04101C"/><path d="M32 10 46 16c2 1 4 3 4 5v9c0 11-7 17-18 21-11-4-18-10-18-21v-9c0-2 2-4 4-5Z" fill="none" stroke="#00E5FF" stroke-width="2.5" stroke-linejoin="round"/><path d="M21 36c3-4 7-6 11-7-3-2-5-5-5-8 0-6 5-10 12-10 3 0 5 1 8 2-4 1-7 3-9 5 4 1 7 4 7 7 0 5-4 8-9 10 3 1 6 3 8 5-3-1-6-1-9-1-3 4-7 6-13 8 3-3 4-6 5-9-2 0-4 0-6-2Z" fill="#FFFFFF"/><path d="M22 29c-4 1-6 3-8 6 4-1 7-1 10 0" fill="none" stroke="#00E5FF" stroke-width="1.8" stroke-linecap="round"/><path d="M42 29c4 1 7 3 8 6-4-1-7-1-10 0" fill="none" stroke="#00E5FF" stroke-width="1.8" stroke-linecap="round"/></svg>
