<svg xmlns="http://www.w3.org/2000/svg" viewBox="0 0 1600 1200" role="img" aria-labelledby="title desc"><title id="title">ORCA logo concept sketches</title><desc id="desc">Four original concept directions exploring shield framing, circular framing, whisker geometry, and aquatic motion.</desc><rect width="1600" height="1200" fill="#07111B"/><g fill="#9FD7E8" font-family="Segoe UI, Arial, sans-serif"><text x="84" y="104" font-size="58" font-weight="700">ORCA Concept Sheet</text><text x="84" y="150" font-size="24">Catfish-inspired aquatic predator mark exploration</text></g><g transform="translate(84 220)"><rect width="660" height="380" rx="40" fill="#0D1C2B" stroke="#163850"/><text x="48" y="58" fill="#00E5FF" font-size="28" font-family="Segoe UI, Arial, sans-serif" font-weight="700">Concept 01 · Shield catfish crest</text><path d="M332 84 470 144c22 10 37 31 39 55v64c0 87-57 136-177 173C213 399 156 350 156 263v-64c2-24 17-45 39-55Z" fill="none" stroke="#00E5FF" stroke-width="13"/><path d="M214 306c22-24 46-36 74-44-24-17-35-39-35-65 0-45 34-78 84-78 19 0 38 4 58 13-27 2-50 16-63 36 29 7 48 28 48 57 0 33-26 59-65 71 26 8 47 22 66 43-22-7-45-9-69-7-20 26-52 44-95 53 18-20 29-41 34-64-17 0-29-3-37-15Z" fill="#FFFFFF"/><path d="M238 247c-35 8-61 26-78 57 34-9 61-10 85-5" fill="none" stroke="#00E5FF" stroke-width="10" stroke-linecap="round"/><path d="M424 247c35 8 61 26 78 57-34-9-62-10-86-5" fill="none" stroke="#00E5FF" stroke-width="10" stroke-linecap="round"/></g><g transform="translate(856 220)"><rect width="660" height="380" rx="40" fill="#0D1C2B" stroke="#163850"/><text x="48" y="58" fill="#00E5FF" font-size="28" font-family="Segoe UI, Arial, sans-serif" font-weight="700">Concept 02 · Circular sonar ring</text><circle cx="330" cy="220" r="145" fill="none" stroke="#00E5FF" stroke-width="14"/><path d="M238 305c22-24 46-36 74-44-24-17-35-39-35-65 0-45 34-78 84-78 19 0 38 4 58 13-27 2-50 16-63 36 29 7 48 28 48 57 0 33-26 59-65 71 26 8 47 22 66 43-22-7-45-9-69-7-20 26-52 44-95 53 18-20 29-41 34-64-17 0-29-3-37-15Z" fill="#003B73" stroke="#FFFFFF" stroke-width="8"/><path d="M254 246c-35 8-57 21-72 46 30-8 54-9 74-4" fill="none" stroke="#FFFFFF" stroke-width="8" stroke-linecap="round"/><path d="M408 246c35 8 57 21 72 46-30-8-54-9-74-4" fill="none" stroke="#FFFFFF" stroke-width="8" stroke-linecap="round"/></g><g transform="translate(84 680)"><rect width="660" height="380" rx="40" fill="#0D1C2B" stroke="#163850"/><text x="48" y="58" fill="#00E5FF" font-size="28" font-family="Segoe UI, Arial, sans-serif" font-weight="700">Concept 03 · Split-wave predator</text><path d="M154 172c93-88 242-88 350 0-64-21-122-21-175 2 54 11 91 39 111 82-34-27-77-38-127-33-14 34-47 65-96 90 17-34 22-64 11-92-45-9-83-3-124 20 16-29 35-52 50-69Z" fill="#FFFFFF" stroke="#00E5FF" stroke-width="10"/><path d="M196 268c-27 6-52 18-75 38 33-8 60-6 82 4" fill="none" stroke="#00E5FF" stroke-width="10" stroke-linecap="round"/><path d="M472 268c27 6 52 18 75 38-33-8-60-6-82 4" fill="none" stroke="#00E5FF" stroke-width="10" stroke-linecap="round"/></g><g transform="translate(856 680)"><rect width="660" height="380" rx="40" fill="#0D1C2B" stroke="#163850"/><text x="48" y="58" fill="#00E5FF" font-size="28" font-family="Segoe UI, Arial, sans-serif" font-weight="700">Concept 04 · Selected direction</text><path d="M332 84 470 144c22 10 37 31 39 55v64c0 87-57 136-177 173C213 399 156 350 156 263v-64c2-24 17-45 39-55Z" fill="none" stroke="#00E5FF" stroke-width="13"/><path d="M214 306c22-24 46-36 74-44-24-17-35-39-35-65 0-45 34-78 84-78 19 0 38 4 58 13-27 2-50 16-63 36 29 7 48 28 48 57 0 33-26 59-65 71 26 8 47 22 66 43-22-7-45-9-69-7-20 26-52 44-95 53 18-20 29-41 34-64-17 0-29-3-37-15Z" fill="#FFFFFF"/><path d="M238 247c-35 8-61 26-78 57 34-9 61-10 85-5" fill="none" stroke="#00E5FF" stroke-width="10" stroke-linecap="round"/><path d="M424 247c35 8 61 26 78 57-34-9-62-10-86-5" fill="none" stroke="#00E5FF" stroke-width="10" stroke-linecap="round"/><text x="48" y="334" fill="#9FD7E8" font-size="22" font-family="Segoe UI, Arial, sans-serif">Selected for its shield posture, apex presence, and subtle whisker geometry.</text></g></svg>
