<svg xmlns="http://www.w3.org/2000/svg" viewBox="0 0 1920 1080" role="img" aria-labelledby="title desc"><title id="title">ORCA OS boot screen</title><desc id="desc">Boot screen graphic with the ORCA catfish-inspired logo, security-grid framing, and a dark oceanic technology backdrop.</desc><defs><linearGradient id="boot-bg" x1="240" y1="40" x2="1680" y2="1040" gradientUnits="userSpaceOnUse"><stop offset="0" stop-color="#03111F"/><stop offset="0.48" stop-color="#072A49"/><stop offset="1" stop-color="#000000"/></linearGradient><radialGradient id="boot-glow" cx="50%" cy="42%" r="44%"><stop offset="0" stop-color="#00E5FF" stop-opacity="0.24"/><stop offset="1" stop-color="#00E5FF" stop-opacity="0"/></radialGradient></defs><rect width="1920" height="1080" fill="url(#boot-bg)"/><rect width="1920" height="1080" fill="url(#boot-glow)"/><g stroke="rgba(0,229,255,0.10)" stroke-width="2" fill="none"><path d="M0 180h1920"/><path d="M0 900h1920"/><path d="M320 0v1080"/><path d="M1600 0v1080"/></g><g transform="translate(704 196)"><path d="M256 48 401 111c28 12 47 39 49 69v80c0 105-68 165-194 204C130 425 62 365 62 260v-80c2-30 21-57 49-69Z" fill="rgba(0,229,255,0.14)"/><path d="M256 76 380 129c20 8 34 27 36 49v74c0 87-54 136-160 175-106-39-160-88-160-175v-74c2-22 16-41 36-49Z" fill="none" stroke="#00E5FF" stroke-width="16" stroke-linejoin="round"/><path d="M152 305c26-29 54-44 87-52-28-20-42-46-43-77 0-54 41-94 102-94 22 0 45 5 69 15-32 3-60 20-75 43 35 9 58 34 58 68 0 40-30 73-77 87 31 9 56 25 79 50-26-8-54-11-82-9-24 31-61 52-114 62 23-24 37-50 42-77-20-1-35-4-46-16Z" fill="#FFFFFF"/><circle cx="275" cy="181" r="7" fill="#03111F"/><circle cx="316" cy="177" r="6" fill="#03111F" opacity="0.88"/><path d="M173 231c-36 8-63 26-80 57 35-10 64-11 90-6" fill="none" stroke="#00E5FF" stroke-width="10" stroke-linecap="round"/><path d="M183 249c-46 14-75 39-89 77 44-17 81-22 110-15" fill="none" stroke="#003B73" stroke-width="8" stroke-linecap="round" opacity="0.9"/><path d="M335 231c37 8 64 26 81 57-35-10-65-11-91-6" fill="none" stroke="#00E5FF" stroke-width="10" stroke-linecap="round"/><path d="M327 249c45 14 74 39 88 77-44-17-80-22-109-15" fill="none" stroke="#003B73" stroke-width="8" stroke-linecap="round" opacity="0.9"/></g><g fill="#FFFFFF" font-family="Segoe UI, Arial, sans-serif" text-anchor="middle"><text x="960" y="826" font-size="96" font-weight="700" letter-spacing="18">ORCA</text><text x="960" y="888" font-size="28" letter-spacing="8" fill="#9FD7E8">LOCAL-FIRST ROBOTICS AND SECURITY PLATFORM</text></g></svg>
