<svg xmlns="http://www.w3.org/2000/svg" viewBox="0 0 512 512" role="img" aria-labelledby="title"><title id="title">ORCA app icon</title><defs><linearGradient id="bg" x1="74" y1="42" x2="428" y2="468" gradientUnits="userSpaceOnUse"><stop offset="0" stop-color="#02111F"/><stop offset="0.52" stop-color="#003B73"/><stop offset="1" stop-color="#000000"/></linearGradient><linearGradient id="body" x1="146" y1="124" x2="356" y2="382" gradientUnits="userSpaceOnUse"><stop offset="0" stop-color="#00E5FF"/><stop offset="0.54" stop-color="#0C6BAA"/><stop offset="1" stop-color="#FFFFFF"/></linearGradient></defs><rect width="512" height="512" rx="116" fill="url(#bg)"/><path d="M256 94 360 139c17 7 29 23 30 41v62c0 72-45 114-134 146-89-32-134-74-134-146v-62c1-18 13-34 30-41Z" fill="none" stroke="#00E5FF" stroke-width="14" stroke-linejoin="round"/><path d="M174 285c20-22 42-35 68-41-22-16-33-37-34-62 0-43 33-75 82-75 18 0 36 4 55 12-26 3-48 16-60 34 28 7 46 27 46 54 0 32-24 58-62 70 25 8 45 20 63 40-21-6-43-9-66-7-19 25-49 42-90 50 18-20 29-41 33-62-15 0-27-3-35-13Z" fill="url(#body)"/><circle cx="271" cy="190" r="6.5" fill="#03111F"/><circle cx="304" cy="187" r="5.5" fill="#03111F" opacity="0.9"/><path d="M189 224c-30 7-52 22-65 47 28-8 52-9 73-5" fill="none" stroke="#00E5FF" stroke-width="8" stroke-linecap="round"/><path d="M196 238c-37 11-60 31-72 64 35-14 65-18 90-12" fill="none" stroke="#FFFFFF" stroke-width="6" stroke-linecap="round" opacity="0.72"/><path d="M319 224c30 7 52 22 66 47-29-8-53-9-74-5" fill="none" stroke="#00E5FF" stroke-width="8" stroke-linecap="round"/><path d="M313 238c37 11 60 31 72 64-35-14-65-18-90-12" fill="none" stroke="#FFFFFF" stroke-width="6" stroke-linecap="round" opacity="0.72"/></svg>
