<svg width="1600" height="900" viewBox="0 0 1600 900" fill="none" xmlns="http://www.w3.org/2000/svg">
  <rect width="1600" height="900" rx="36" fill="#0A2239"/>
  <rect x="82" y="80" width="1436" height="740" rx="30" fill="#102E4A" stroke="#70C1B3" stroke-opacity="0.28"/>
  <text x="118" y="152" fill="#FFFFFF" font-size="64" font-weight="700" font-family="Helvetica, Arial, sans-serif">Orca AI Model</text>
  <text x="118" y="198" fill="#B7D2E3" font-size="28" font-family="Helvetica, Arial, sans-serif">Live operational reasoning across mobility, mapping, infrastructure, and mission response</text>
  <g opacity="0.25">
    <path d="M152 292C282 252 420 244 548 290C690 341 826 450 980 444C1124 438 1214 316 1364 282" stroke="#70C1B3" stroke-width="8" stroke-linecap="round"/>
    <path d="M176 486C306 446 444 438 572 484C714 535 850 644 1004 638C1148 632 1238 510 1388 476" stroke="#F2C14E" stroke-width="8" stroke-linecap="round"/>
  </g>
  <g>
    <circle cx="350" cy="370" r="94" fill="#17324D" stroke="#70C1B3" stroke-width="4"/>
    <text x="350" y="355" fill="#FFFFFF" font-size="34" font-weight="700" font-family="Helvetica, Arial, sans-serif" text-anchor="middle">GPS</text>
    <text x="350" y="397" fill="#C9E1EC" font-size="24" font-family="Helvetica, Arial, sans-serif" text-anchor="middle">Mobility signals</text>
  </g>
  <g>
    <circle cx="652" cy="554" r="94" fill="#17324D" stroke="#F2C14E" stroke-width="4"/>
    <text x="652" y="539" fill="#FFFFFF" font-size="34" font-weight="700" font-family="Helvetica, Arial, sans-serif" text-anchor="middle">MAPS</text>
    <text x="652" y="581" fill="#C9E1EC" font-size="24" font-family="Helvetica, Arial, sans-serif" text-anchor="middle">Geospatial context</text>
  </g>
  <g>
    <circle cx="1000" cy="336" r="94" fill="#17324D" stroke="#E56B2F" stroke-width="4"/>
    <text x="1000" y="321" fill="#FFFFFF" font-size="34" font-weight="700" font-family="Helvetica, Arial, sans-serif" text-anchor="middle">ALERTS</text>
    <text x="1000" y="363" fill="#C9E1EC" font-size="24" font-family="Helvetica, Arial, sans-serif" text-anchor="middle">Operational signals</text>
  </g>
  <g>
    <circle cx="1260" cy="560" r="94" fill="#17324D" stroke="#B8F2E6" stroke-width="4"/>
    <text x="1260" y="530" fill="#FFFFFF" font-size="26" font-weight="700" font-family="Helvetica, Arial, sans-serif" text-anchor="middle">ORCA</text>
    <text x="1260" y="562" fill="#FFFFFF" font-size="26" font-weight="700" font-family="Helvetica, Arial, sans-serif" text-anchor="middle">AI MODEL</text>
    <text x="1260" y="596" fill="#C9E1EC" font-size="22" font-family="Helvetica, Arial, sans-serif" text-anchor="middle">Inference + routing</text>
  </g>
  <path d="M434 406L570 510" stroke="#70C1B3" stroke-width="10" stroke-linecap="round"/>
  <path d="M744 516L910 378" stroke="#F2C14E" stroke-width="10" stroke-linecap="round"/>
  <path d="M1088 394L1178 506" stroke="#E56B2F" stroke-width="10" stroke-linecap="round"/>
  <rect x="170" y="700" width="1260" height="74" rx="20" fill="#081B2F" stroke="#B8F2E6" stroke-opacity="0.18"/>
  <text x="800" y="746" fill="#D9FFF8" font-size="28" font-family="Helvetica, Arial, sans-serif" text-anchor="middle">Orca turns field data into training records, versioned models, and deployable operational reasoning.</text>
</svg>